<svg width="82" height="56" viewBox="0 0 82 56" fill="none" xmlns="http://www.w3.org/2000/svg">
<path d="M27.5106 36.0739L13.863 31.5103L9.32431 36.713L0.000193828 33.5951L26.5404 4.42424L36.8543 7.87305L36.7758 45.8924L27.3475 42.7397L27.5106 36.0739ZM27.7213 28.9905L28.062 15.1761L18.7097 25.9771L27.7213 28.9905Z" fill="#212121"/>
<rect x="37.3281" y="46.8928" width="9.23885" height="8.23388" fill="#212121"/>
<path fill-rule="evenodd" clip-rule="evenodd" d="M72.3541 21.7832C69.2866 20.2892 65.7017 19.5422 61.5994 19.5422H47.0195V38.4048H56.4992V26.9781H60.9896C64.5745 26.9781 67.3648 27.8949 69.3605 29.7284C71.3562 31.5619 72.3541 34.1254 72.3541 37.419C72.3541 40.7125 71.3562 43.2591 69.3605 45.0586C67.3648 46.8582 64.5745 47.7579 60.9896 47.7579H56.4992V46.8928H47.0195V55.2957H61.5994C65.6647 55.2957 69.2312 54.5487 72.2987 53.0548C75.4031 51.5608 77.7869 49.4556 79.45 46.7393C81.1501 44.023 82.0001 40.9162 82.0001 37.419C82.0001 33.8878 81.1501 30.781 79.45 28.0986C77.7869 25.3823 75.4216 23.2772 72.3541 21.7832Z" fill="#7A1BF3"/>
</svg>
