<svg width="110" height="54" viewBox="0 0 110 54" fill="none" xmlns="http://www.w3.org/2000/svg">
<path d="M17.964 35.536H8.532L7.02 40H0.576L9.72 14.728H16.848L25.992 40H19.476L17.964 35.536ZM16.38 30.784L13.248 21.532L10.152 30.784H16.38Z" fill="#FF006B"/>
<rect x="35" y="34" width="6" height="6" fill="#FF006B"/>
<path fill-rule="evenodd" clip-rule="evenodd" d="M57.6839 16.312C55.6919 15.256 53.3639 14.728 50.6999 14.728H41.2319V28H47.3879V19.984H50.3039C52.6319 19.984 54.4439 20.632 55.7399 21.928C57.0359 23.224 57.6839 25.036 57.6839 27.364C57.6839 29.692 57.0359 31.492 55.7399 32.764C54.4439 34.036 52.6319 34.672 50.3039 34.672H47.3879V34H41.2319V40H50.6999C53.3399 40 55.6559 39.472 57.6479 38.416C59.6639 37.36 61.2119 35.872 62.2919 33.952C63.3959 32.032 63.9479 29.836 63.9479 27.364C63.9479 24.868 63.3959 22.672 62.2919 20.776C61.2119 18.856 59.6759 17.368 57.6839 16.312ZM86.2162 31.432C86.2882 30.808 86.3242 30.208 86.3242 29.632C86.3242 27.616 85.8922 25.852 85.0282 24.34C84.1882 22.828 83.0122 21.664 81.5002 20.848C79.9882 20.032 78.2602 19.624 76.3162 19.624C74.3242 19.624 72.5602 20.044 71.0242 20.884C69.4882 21.724 68.2882 22.924 67.4242 24.484C66.5842 26.044 66.1642 27.868 66.1642 29.956C66.1642 32.044 66.5962 33.868 67.4602 35.428C68.3242 36.988 69.5242 38.188 71.0602 39.028C72.5962 39.868 74.3482 40.288 76.3162 40.288C77.9482 40.288 79.4242 39.988 80.7442 39.388C82.0642 38.788 83.1562 37.96 84.0202 36.904C84.9082 35.848 85.5202 34.66 85.8562 33.34H79.3042C78.7042 34.636 77.6362 35.284 76.1002 35.284C75.0682 35.284 74.1922 34.96 73.4722 34.312C72.7762 33.64 72.3802 32.68 72.2842 31.432H86.2162ZM78.9442 25.492C79.6642 26.116 80.0242 26.956 80.0242 28.012H72.3202C72.4882 26.908 72.9202 26.056 73.6162 25.456C74.3362 24.856 75.2122 24.556 76.2442 24.556C77.3242 24.556 78.2242 24.868 78.9442 25.492ZM102.964 19.912L98.6078 34.24L94.2518 19.912H87.6638L94.7918 40H102.388L109.516 19.912H102.964Z" fill="#DB00FF"/>
<rect x="29" y="13" width="6" height="21" fill="#FF006B"/>
</svg>
