<svg width="91" height="47" viewBox="0 0 91 47" fill="none" xmlns="http://www.w3.org/2000/svg">
<path d="M52.144 6.90006C52.144 10.7121 49.0546 13.8027 45.2413 13.8027C41.4306 13.8027 38.3413 10.7121 38.3413 6.90006C38.3413 3.0894 41.4306 6.48499e-05 45.2413 6.48499e-05C49.0546 6.48499e-05 52.144 3.0894 52.144 6.90006Z" fill="#FF006B"/>
<path d="M90.3666 6.90006C90.3666 10.7121 87.2773 13.8027 83.4653 13.8027C79.6533 13.8027 76.564 10.7121 76.564 6.90006C76.564 3.0894 79.6533 6.48499e-05 83.4653 6.48499e-05C87.2773 6.48499e-05 90.3666 3.0894 90.3666 6.90006Z" fill="#FF006B"/>
<path d="M52.144 39.1065C52.144 42.9185 49.0546 46.0078 45.2413 46.0078C41.4306 46.0078 38.3413 42.9185 38.3413 39.1065C38.3413 35.2958 41.4306 32.2051 45.2413 32.2051C49.0546 32.2051 52.144 35.2958 52.144 39.1065Z" fill="#FF006B"/>
<path d="M90.3666 39.1065C90.3666 42.9185 87.2773 46.0078 83.4653 46.0078C79.6533 46.0078 76.564 42.9185 76.564 39.1065C76.564 35.2958 79.6533 32.2051 83.4653 32.2051C87.2773 32.2051 90.3666 35.2958 90.3666 39.1065Z" fill="#FF006B"/>
<path d="M13.8027 6.90006C13.8027 10.7121 10.7133 13.8027 6.9013 13.8027C3.0893 13.8027 0 10.7121 0 6.90006C0 3.0894 3.0893 6.48499e-05 6.9013 6.48499e-05C10.7133 6.48499e-05 13.8027 3.0894 13.8027 6.90006Z" fill="#FF006B"/>
<path d="M13.8027 39.1065C13.8027 42.9185 10.7133 46.0078 6.9013 46.0078C3.0893 46.0078 0 42.9185 0 39.1065C0 35.2958 3.0893 32.2051 6.9013 32.2051C10.7133 32.2051 13.8027 35.2958 13.8027 39.1065Z" fill="#FF006B"/>
</svg>
