<svg width="125" height="125" viewBox="0 0 125 125" fill="none" xmlns="http://www.w3.org/2000/svg">
<rect width="125" height="125" rx="25" fill="#353535"/>
<path opacity="0.5" d="M57.2918 49.0833H21.7085C19.6881 49.0894 17.7521 49.8947 16.3235 51.3233C14.8948 52.752 14.0895 54.6879 14.0835 56.7083V79.2275L23.9452 69.3658C25.3982 67.9828 27.3275 67.2115 29.3335 67.2115C31.3395 67.2115 33.2688 67.9828 34.7218 69.3658L42.019 76.7036L44.276 74.4466C45.7085 73.0221 47.6466 72.2225 49.6668 72.2225C51.6871 72.2225 53.6252 73.0221 55.0577 74.4466L64.9168 84.3108V56.7083C64.9108 54.6879 64.1055 52.752 62.6769 51.3233C61.2482 49.8947 59.3123 49.0894 57.2918 49.0833V49.0833Z" fill="#FF006B"/>
<path d="M34.7218 69.3659C33.2688 67.9828 31.3395 67.2115 29.3335 67.2115C27.3275 67.2115 25.3982 67.9828 23.9452 69.3659L14.0835 79.2275V92.2917C14.0895 94.3121 14.8948 96.2481 16.3235 97.6767C17.7521 99.1054 19.6881 99.9107 21.7085 99.9167H57.2918C59.3633 99.9167 61.3458 99.0703 62.7818 97.5784L34.7218 69.3659Z" fill="#FF006B"/>
<path opacity="0.25" d="M64.9169 84.3057L55.0578 74.4466C53.6253 73.0221 51.6872 72.2225 49.6669 72.2225C47.6467 72.2225 45.7086 73.0221 44.276 74.4466L42.019 76.7036L62.7717 97.5682C64.1493 96.1575 64.9195 94.264 64.9169 92.2917V84.3057Z" fill="#FF006B"/>
<path opacity="0.5" d="M79.9998 18.8333C78.1573 18.7666 76.3204 19.0733 74.5994 19.7348C72.8785 20.3963 71.3091 21.3991 69.9858 22.6828C68.6624 23.9665 67.6123 25.5046 66.8986 27.2046C66.185 28.9046 65.8226 30.7313 65.8331 32.575C65.8086 34.4882 66.1927 36.3847 66.9598 38.1376C67.7269 39.8905 68.8594 41.4594 70.2815 42.7396C70.3962 42.8415 70.4893 42.9656 70.555 43.1044C70.6207 43.2431 70.6578 43.3937 70.664 43.5471L70.7419 46.0673C70.7478 46.2527 70.7991 46.4338 70.8913 46.5947C70.9834 46.7557 71.1136 46.8916 71.2705 46.9906C71.4273 47.0896 71.6061 47.1486 71.791 47.1625C71.976 47.1764 72.1615 47.1447 72.3314 47.0703L75.1421 45.8307C75.3802 45.7253 75.6474 45.7053 75.8986 45.7741C77.235 46.1385 78.6145 46.321 79.9998 46.3167C81.8415 46.3758 83.6763 46.0641 85.3952 45.4002C87.1141 44.7362 88.6819 43.7335 90.0056 42.4516C91.3293 41.1697 92.3818 39.6349 93.1006 37.9382C93.8194 36.2415 94.1898 34.4176 94.1898 32.575C94.1898 30.7323 93.8194 28.9085 93.1006 27.2118C92.3818 25.5151 91.3293 23.9802 90.0056 22.6984C88.6819 21.4165 87.1141 20.4138 85.3952 19.7498C83.6763 19.0859 81.8415 18.7742 79.9998 18.8333Z" fill="#DB00FF"/>
<path d="M72.2067 36.927C71.9374 36.9265 71.6738 36.8493 71.4468 36.7043C71.2197 36.5594 71.0388 36.3527 70.925 36.1086C70.8113 35.8645 70.7695 35.5929 70.8045 35.3259C70.8396 35.0588 70.9501 34.8073 71.123 34.6008L75.4467 29.4498C75.6642 29.1882 75.969 29.0141 76.3048 28.9594C76.6406 28.9047 76.9849 28.9732 77.2742 29.1523L82.0143 32.065L85.2897 28.1621C85.4078 28.0151 85.554 27.8932 85.7198 27.8035C85.8857 27.7138 86.0677 27.6581 86.2554 27.6397C86.443 27.6213 86.6324 27.6405 86.8125 27.6962C86.9926 27.7519 87.1598 27.843 87.3043 27.9642C87.4487 28.0853 87.5675 28.2341 87.6537 28.4018C87.74 28.5694 87.7918 28.7526 87.8063 28.9406C87.8208 29.1286 87.7977 29.3176 87.7382 29.4965C87.6787 29.6754 87.5841 29.8406 87.46 29.9825L83.3984 34.8218C83.1802 35.082 82.8758 35.2552 82.5406 35.3098C82.2055 35.3644 81.8618 35.2968 81.5723 35.1193L76.8322 32.2067L73.2933 36.4212C73.1606 36.5803 72.9943 36.7081 72.8065 36.7955C72.6187 36.8829 72.4139 36.9278 72.2067 36.927Z" fill="#DB00FF"/>
<path opacity="0.25" d="M78.4998 97.5833H72.8332C72.4574 97.5833 72.0971 97.4341 71.8314 97.1684C71.5658 96.9027 71.4165 96.5424 71.4165 96.1667V84.8333C71.4165 84.4576 71.5658 84.0973 71.8314 83.8316C72.0971 83.5659 72.4574 83.4167 72.8332 83.4167H78.4998C78.8756 83.4167 79.2359 83.5659 79.5016 83.8316C79.7672 84.0973 79.9165 84.4576 79.9165 84.8333V96.1667C79.9165 96.5424 79.7672 96.9027 79.5016 97.1684C79.2359 97.4341 78.8756 97.5833 78.4998 97.5833Z" fill="#DB00FF"/>
<path d="M89.8333 97.5833H84.1667C83.7909 97.5833 83.4306 97.4341 83.1649 97.1684C82.8993 96.9027 82.75 96.5424 82.75 96.1667V67.8333C82.75 67.4576 82.8993 67.0973 83.1649 66.8316C83.4306 66.5659 83.7909 66.4167 84.1667 66.4167H89.8333C90.2091 66.4167 90.5694 66.5659 90.8351 66.8316C91.1007 67.0973 91.25 67.4576 91.25 67.8333V96.1667C91.25 96.5424 91.1007 96.9027 90.8351 97.1684C90.5694 97.4341 90.2091 97.5833 89.8333 97.5833Z" fill="#DB00FF"/>
<path opacity="0.5" d="M101.167 97.5833H95.5002C95.1244 97.5833 94.7641 97.4341 94.4984 97.1684C94.2328 96.9027 94.0835 96.5424 94.0835 96.1667V79.1667C94.0835 78.7909 94.2328 78.4306 94.4984 78.1649C94.7641 77.8993 95.1244 77.75 95.5002 77.75H101.167C101.543 77.75 101.903 77.8993 102.169 78.1649C102.434 78.4306 102.583 78.7909 102.583 79.1667V96.1667C102.583 96.5424 102.434 96.9027 102.169 97.1684C101.903 97.4341 101.543 97.5833 101.167 97.5833Z" fill="#DB00FF"/>
</svg>
