<svg width="508" height="401" viewBox="0 0 508 401" fill="none" xmlns="http://www.w3.org/2000/svg">
<path d="M507.802 215.633C507.802 201.067 495.994 189.262 481.433 189.262C466.871 189.262 455.063 201.067 455.063 215.633C455.063 230.195 466.871 242 481.433 242C495.994 242 507.802 230.195 507.802 215.633Z" fill="#DB00FF"/>
<path d="M450.744 118.037C421.129 118.037 397.037 142.131 397.037 171.743C397.037 201.356 421.129 225.447 450.744 225.447C480.356 225.447 504.447 201.356 504.447 171.743C504.447 142.131 480.356 118.037 450.744 118.037ZM450.744 227.484C420.006 227.484 395 202.481 395 171.743C395 141.006 420.006 116 450.744 116C481.479 116 506.485 141.006 506.485 171.743C506.485 202.481 481.479 227.484 450.744 227.484Z" fill="#FF006B"/>
<path d="M336.429 170.653L230.215 64.4387L232.602 62.0516L338.817 168.266L336.429 170.653Z" fill="#DB00FF"/>
<path d="M326.484 129.026L271.845 74.3865L274.232 71.9993L328.872 126.639L326.484 129.026Z" fill="#DB00FF"/>
<path d="M126.639 328.872L71.9995 274.232L74.3867 271.845L129.026 326.484L126.639 328.872Z" fill="#DB00FF"/>
<path d="M339.884 204.735L196.136 60.9878L198.523 58.6006L342.271 202.348L339.884 204.735Z" fill="#DB00FF"/>
<path d="M336.632 232.153L168.717 64.2383L171.104 61.8511L339.019 229.766L336.632 232.153Z" fill="#DB00FF"/>
<path d="M329.335 255.521L145.351 71.5371L147.738 69.15L331.722 253.134L329.335 255.521Z" fill="#DB00FF"/>
<path d="M318.958 275.776L125.094 81.9124L127.481 79.5252L321.345 273.389L318.958 275.776Z" fill="#DB00FF"/>
<path d="M306.012 293.496L107.375 94.8582L109.762 92.471L308.4 291.109L306.012 293.496Z" fill="#DB00FF"/>
<path d="M290.698 308.81L92.0605 110.172L94.4477 107.785L293.086 306.423L290.698 308.81Z" fill="#DB00FF"/>
<path d="M272.976 321.758L79.1123 127.894L81.4995 125.507L275.363 319.371L272.976 321.758Z" fill="#DB00FF"/>
<path d="M252.685 332.132L68.7388 148.186L71.1259 145.799L255.073 329.745L252.685 332.132Z" fill="#DB00FF"/>
<path d="M229.353 339.432L61.438 171.517L63.8251 169.13L231.74 337.045L229.353 339.432Z" fill="#DB00FF"/>
<path d="M201.937 342.681L58.1895 198.934L60.5766 196.547L204.324 340.294L201.937 342.681Z" fill="#DB00FF"/>
<path d="M167.853 339.229L61.6387 233.015L64.0258 230.628L170.24 336.842L167.853 339.229Z" fill="#DB00FF"/>
</svg>
