<svg width="125" height="125" viewBox="0 0 125 125" fill="none" xmlns="http://www.w3.org/2000/svg">
<rect width="125" height="125" rx="25" fill="#353535"/>
<path opacity="0.5" d="M102.625 83.6667H90.9583C90.5716 83.6667 90.2006 83.513 89.9271 83.2395C89.6536 82.966 89.5 82.5951 89.5 82.2083C89.5 81.8216 89.6536 81.4506 89.9271 81.1771C90.2006 80.9036 90.5716 80.75 90.9583 80.75H102.625C103.012 80.75 103.383 80.9036 103.656 81.1771C103.93 81.4506 104.083 81.8216 104.083 82.2083C104.083 82.5951 103.93 82.966 103.656 83.2395C103.383 83.513 103.012 83.6667 102.625 83.6667ZM102.625 89.5H90.9583C90.5716 89.5 90.2006 89.3464 89.9271 89.0729C89.6536 88.7994 89.5 88.4284 89.5 88.0417C89.5 87.6549 89.6536 87.284 89.9271 87.0105C90.2006 86.737 90.5716 86.5833 90.9583 86.5833H102.625C103.012 86.5833 103.383 86.737 103.656 87.0105C103.93 87.284 104.083 87.6549 104.083 88.0417C104.083 88.4284 103.93 88.7994 103.656 89.0729C103.383 89.3464 103.012 89.5 102.625 89.5Z" fill="#DB00FF"/>
<path d="M85.1248 77.8333H76.3748C75.5694 77.8333 74.9165 78.4863 74.9165 79.2917V88.0417C74.9165 88.8471 75.5694 89.5 76.3748 89.5H85.1248C85.9303 89.5 86.5832 88.8471 86.5832 88.0417V79.2917C86.5832 78.4863 85.9303 77.8333 85.1248 77.8333Z" fill="#DB00FF"/>
<path opacity="0.5" d="M102.625 95.3333H76.3748C75.9881 95.3333 75.6171 95.1797 75.3436 94.9062C75.0701 94.6327 74.9165 94.2618 74.9165 93.875C74.9165 93.4882 75.0701 93.1173 75.3436 92.8438C75.6171 92.5703 75.9881 92.4167 76.3748 92.4167H102.625C103.012 92.4167 103.383 92.5703 103.656 92.8438C103.93 93.1173 104.083 93.4882 104.083 93.875C104.083 94.2618 103.93 94.6327 103.656 94.9062C103.383 95.1797 103.012 95.3333 102.625 95.3333ZM90.9582 101.167H76.3748C75.9881 101.167 75.6171 101.013 75.3436 100.74C75.0701 100.466 74.9165 100.095 74.9165 99.7083C74.9165 99.3215 75.0701 98.9506 75.3436 98.6771C75.6171 98.4036 75.9881 98.25 76.3748 98.25H90.9582C91.3449 98.25 91.7159 98.4036 91.9894 98.6771C92.2629 98.9506 92.4165 99.3215 92.4165 99.7083C92.4165 100.095 92.2629 100.466 91.9894 100.74C91.7159 101.013 91.3449 101.167 90.9582 101.167Z" fill="#DB00FF"/>
<path opacity="0.25" d="M66.9168 73.4167H36.4168V50.1667H31.3335V101.833H36.4168V78.5834H66.9168V73.4167Z" fill="#FF006B"/>
<path d="M18.6252 50.1667H31.3335V101.833H18.6252C17.9511 101.833 17.3046 101.561 16.8279 101.077C16.3513 100.592 16.0835 99.9352 16.0835 99.25V52.75C16.0835 52.0649 16.3513 51.4078 16.8279 50.9233C17.3046 50.4389 17.9511 50.1667 18.6252 50.1667V50.1667Z" fill="#FF006B"/>
<path opacity="0.5" d="M36.4165 50.1667H64.3748C65.0489 50.1667 65.6954 50.4389 66.1721 50.9233C66.6487 51.4078 66.9165 52.0649 66.9165 52.75V73.4167H36.4165V50.1667ZM36.4165 78.5834H66.9165V99.25C66.9165 99.9352 66.6487 100.592 66.1721 101.077C65.6954 101.561 65.0489 101.833 64.3748 101.833H36.4165V78.5834Z" fill="#FF006B"/>
<path d="M79.2915 31.3333C78.4262 31.3333 77.5804 31.0841 76.8609 30.6171C76.1414 30.1501 75.5807 29.4863 75.2495 28.7097C74.9184 27.9332 74.8318 27.0786 75.0006 26.2542C75.1694 25.4298 75.5861 24.6725 76.1979 24.0781C76.8098 23.4838 77.5893 23.079 78.438 22.915C79.2867 22.751 80.1663 22.8352 80.9657 23.1569C81.7652 23.4785 82.4485 24.0233 82.9292 24.7222C83.4099 25.4211 83.6665 26.2428 83.6665 27.0833C83.6653 28.2102 83.204 29.2905 82.3838 30.0873C81.5636 30.8841 80.4515 31.3322 79.2915 31.3333ZM79.2915 25.6667C79.0031 25.6667 78.7211 25.7498 78.4813 25.9054C78.2415 26.0611 78.0546 26.2823 77.9442 26.5412C77.8338 26.8001 77.8049 27.0849 77.8612 27.3597C77.9175 27.6345 78.0564 27.887 78.2603 28.0851C78.4643 28.2832 78.7241 28.4181 79.007 28.4728C79.2899 28.5275 79.5831 28.4994 79.8496 28.3922C80.1161 28.285 80.3438 28.1034 80.5041 27.8704C80.6643 27.6374 80.7498 27.3635 80.7498 27.0833C80.7495 26.7077 80.5957 26.3476 80.3223 26.082C80.0489 25.8164 79.6782 25.6671 79.2915 25.6667ZM99.7082 31.3333C98.8429 31.3333 97.997 31.0841 97.2776 30.6171C96.5581 30.1501 95.9973 29.4863 95.6662 28.7097C95.3351 27.9332 95.2484 27.0786 95.4172 26.2542C95.586 25.4298 96.0027 24.6725 96.6146 24.0781C97.2264 23.4838 98.006 23.079 98.8547 22.915C99.7033 22.751 100.583 22.8352 101.382 23.1569C102.182 23.4785 102.865 24.0233 103.346 24.7222C103.827 25.4211 104.083 26.2428 104.083 27.0833C104.082 28.2102 103.621 29.2905 102.8 30.0873C101.98 30.8841 100.868 31.3322 99.7082 31.3333ZM99.7082 25.6667C99.4197 25.6667 99.1378 25.7498 98.898 25.9054C98.6581 26.0611 98.4712 26.2823 98.3608 26.5412C98.2505 26.8001 98.2216 27.0849 98.2779 27.3597C98.3341 27.6345 98.473 27.887 98.677 28.0851C98.8809 28.2832 99.1408 28.4181 99.4237 28.4728C99.7066 28.5275 99.9998 28.4994 100.266 28.3922C100.533 28.285 100.76 28.1034 100.921 27.8704C101.081 27.6374 101.167 27.3635 101.167 27.0833C101.166 26.7077 101.012 26.3476 100.739 26.082C100.466 25.8164 100.095 25.6671 99.7082 25.6667V25.6667ZM79.2915 51.1667C78.4262 51.1667 77.5804 50.9174 76.8609 50.4504C76.1414 49.9834 75.5807 49.3197 75.2495 48.5431C74.9184 47.7665 74.8318 46.912 75.0006 46.0875C75.1694 45.2631 75.5861 44.5058 76.1979 43.9115C76.8098 43.3171 77.5893 42.9123 78.438 42.7483C79.2867 42.5844 80.1663 42.6685 80.9657 42.9902C81.7652 43.3119 82.4485 43.8566 82.9292 44.5555C83.4099 45.2544 83.6665 46.0761 83.6665 46.9167C83.6653 48.0435 83.204 49.1239 82.3838 49.9206C81.5636 50.7174 80.4515 51.1656 79.2915 51.1667ZM79.2915 45.5C79.0031 45.5 78.7211 45.5831 78.4813 45.7388C78.2415 45.8944 78.0546 46.1157 77.9442 46.3745C77.8338 46.6334 77.8049 46.9183 77.8612 47.1931C77.9175 47.4679 78.0564 47.7203 78.2603 47.9184C78.4643 48.1165 78.7241 48.2515 79.007 48.3061C79.2899 48.3608 79.5831 48.3327 79.8496 48.2255C80.1161 48.1183 80.3438 47.9367 80.5041 47.7037C80.6643 47.4708 80.7498 47.1969 80.7498 46.9167C80.7495 46.5411 80.5957 46.181 80.3223 45.9154C80.0489 45.6498 79.6782 45.5004 79.2915 45.5V45.5ZM99.7082 51.1667C98.8429 51.1667 97.997 50.9174 97.2776 50.4504C96.5581 49.9834 95.9973 49.3197 95.6662 48.5431C95.3351 47.7665 95.2484 46.912 95.4172 46.0875C95.586 45.2631 96.0027 44.5058 96.6146 43.9115C97.2264 43.3171 98.006 42.9123 98.8547 42.7483C99.7033 42.5844 100.583 42.6685 101.382 42.9902C102.182 43.3119 102.865 43.8566 103.346 44.5555C103.827 45.2544 104.083 46.0761 104.083 46.9167C104.082 48.0435 103.621 49.1239 102.8 49.9206C101.98 50.7174 100.868 51.1656 99.7082 51.1667ZM99.7082 45.5C99.4197 45.5 99.1378 45.5831 98.898 45.7388C98.6581 45.8944 98.4712 46.1157 98.3608 46.3745C98.2505 46.6334 98.2216 46.9183 98.2779 47.1931C98.3341 47.4679 98.473 47.7203 98.677 47.9184C98.8809 48.1165 99.1408 48.2515 99.4237 48.3061C99.7066 48.3608 99.9998 48.3327 100.266 48.2255C100.533 48.1183 100.76 47.9367 100.921 47.7037C101.081 47.4708 101.167 47.1969 101.167 46.9167C101.166 46.5411 101.012 46.181 100.739 45.9154C100.466 45.6498 100.095 45.5004 99.7082 45.5V45.5Z" fill="#DB00FF"/>
<path opacity="0.5" d="M95.6018 48.3333C95.2435 47.421 95.2435 46.4123 95.6018 45.5H83.3985C83.7567 46.4124 83.7567 47.4209 83.3985 48.3333H95.6018ZM99.7085 31.3333C99.2106 31.3287 98.7172 31.2405 98.2502 31.0727V42.9273C99.1894 42.5793 100.228 42.5793 101.167 42.9273V31.0727C100.7 31.2405 100.206 31.3287 99.7085 31.3333ZM83.3985 25.6667C83.5712 26.1203 83.662 26.5996 83.6668 27.0833C83.662 27.567 83.5712 28.0463 83.3985 28.5H95.6018C95.4291 28.0463 95.3383 27.567 95.3335 27.0833C95.3383 26.5996 95.4291 26.1203 95.6018 25.6667H83.3985ZM79.2918 42.6667C79.7898 42.6713 80.2831 42.7595 80.7502 42.9273V31.0727C80.2831 31.2405 79.7898 31.3287 79.2918 31.3333C78.7939 31.3287 78.3005 31.2405 77.8335 31.0727V42.9273C78.3005 42.7595 78.7939 42.6713 79.2918 42.6667V42.6667Z" fill="#DB00FF"/>
</svg>
